# File created by Blade
# Date/Time:  Wed Apr 08 14:54:55 2015
#---------------------------------------------------------
:version 1.10
:name HOM
:units
  mass 1.0
  length 1.000000
  angle deg
:documentation
     Acclaim Skeleton File
:root
   axis xyz
   order TX TY TZ RX RY RZ
   position 0.000000 0.000000 0.000000
   orientation 0 0 0
:bonedata
   begin
      id 1
      name Spine_dum
      direction 0.000000 1.000000 0.000000
      length 4.885285
      axis 0.0 0.0 0.0 xyz
   end
   begin
      id 2
      name LeftUpLeg_dum
      direction 1.000000 0.000000 0.000000
      length 2.672193
      axis 0.0 0.0 0.0 xyz
   end
   begin
      id 3
      name RightUpLeg_dum
      direction -1.000000 0.000000 0.000000
      length 2.672193
      axis 0.0 0.0 0.0 xyz
   end
   begin
      id 4
      name Spine
      direction 0.000000 1.000000 0.000000
      length 0.000000
      axis 0.0 0.0 0.0 xyz
      dof rx ry rz
   end
   begin
      id 5
      name Spine_dum1
      direction 0.000000 1.000000 0.000000
      length 16.494159
      axis 0.0 0.0 0.0 xyz
   end
   begin
      id 6
      name Spine_dum2
      direction 0.000000 1.000000 0.000000
      length 10.663448
      axis 0.0 0.0 0.0 xyz
   end
   begin
      id 7
      name Spine_dum3
      direction 0.000000 1.000000 0.000000
      length 10.663448
      axis 0.0 0.0 0.0 xyz
   end
   begin
      id 8
      name Head
      direction 0.000000 1.000000 0.000000
      length 4.527550
      axis 0.0 0.0 0.0 xyz
      dof rx ry rz
   end
   begin
      id 9
      name LeftShoulder
      direction 1.000000 0.000000 0.000000
      length 7.531907
      axis 0.0 0.0 -90.0 xyz
      dof rx ry rz
   end
   begin
      id 10
      name LeftArm
      direction 1.000000 0.000000 0.000000
      length 10.229199
      axis 0.0 0.0 -90.0 xyz
      dof rx ry rz
   end
   begin
      id 11
      name LeftForeArm
      direction 1.000000 0.000000 0.000000
      length 8.673495
      axis 0.0 0.0 -90.0 xyz
      dof ry rz rx
   end
   begin
      id 12
      name LeftHand
      direction 0.000000 0.000000 0.000000
      length 0.000000
      axis 0.0 0.0 -90.0 xyz
      dof rx ry rz
   end
   begin
      id 13
      name LeftHand_dum1
      direction 0.000000 0.000000 0.000000
      length 0.000000
      axis 0.0 0.0 -90.0 xyz
   end
   begin
      id 14
      name LeftHand_dum2
      direction 1.000000 0.000000 0.000000
      length 3.937000
      axis 0.0 0.0 -90.0 xyz
   end
   begin
      id 15
      name LeftHandThumb1
      direction 0.000000 0.000000 1.000000
      length 3.937000
      axis 0.0 0.0 -90.0 xyz
      dof rx rz ry
   end
   begin
      id 16
      name RightShoulder
      direction -1.000000 0.000000 0.000000
      length 7.531907
      axis 0.0 0.0 90.0 xyz
      dof rx ry rz
   end
   begin
      id 17
      name RightArm
      direction -1.000000 0.000000 0.000000
      length 10.229199
      axis 0.0 0.0 90.0 xyz
      dof rx ry rz
   end
   begin
      id 18
      name RightForeArm
      direction -1.000000 0.000000 0.000000
      length 8.673495
      axis 0.0 0.0 90.0 xyz
      dof ry rz rx
   end
   begin
      id 19
      name RightHand
      direction 0.000000 0.000000 0.000000
      length 0.000000
      axis 0.0 0.0 90.0 xyz
      dof rx ry rz
   end
   begin
      id 20
      name RightHand_dum1
      direction 0.000000 0.000000 0.000000
      length 0.000000
      axis 0.0 0.0 90.0 xyz
   end
   begin
      id 21
      name RightHand_dum2
      direction -1.000000 0.000000 0.000000
      length 3.937000
      axis 0.0 0.0 90.0 xyz
   end
   begin
      id 22
      name RightHandThumb1
      direction 0.000000 0.000000 1.000000
      length 3.937000
      axis 0.0 0.0 90.0 xyz
      dof rx rz ry
   end
   begin
      id 23
      name LeftUpLeg
      direction 0.000000 -1.000000 0.000000
      length 16.263388
      axis 0.0 0.0 0.0 xyz
      dof rx ry rz
   end
   begin
      id 24
      name LeftLeg
      direction 0.000000 -1.000000 0.000000
      length 14.328163
      axis 0.0 0.0 0.0 xyz
      dof rx ry rz
   end
   begin
      id 25
      name LeftFoot
      direction 0.000000 -0.258819 0.965926
      length 5.031290
      axis 15.0 0.0 0.0 xyz
      dof rx ry rz
   end
   begin
      id 26
      name LeftToeBase
      direction 0.000000 0.000000 1.000000
      length 2.952750
      axis 0.0 0.0 0.0 xyz
      dof rx ry rz
   end
   begin
      id 27
      name RightUpLeg
      direction 0.000000 -1.000000 0.000000
      length 16.263388
      axis 0.0 0.0 0.0 xyz
      dof rx ry rz
   end
   begin
      id 28
      name RightLeg
      direction 0.000000 -1.000000 0.000000
      length 14.328163
      axis 0.0 0.0 0.0 xyz
      dof rx ry rz
   end
   begin
      id 29
      name RightFoot
      direction 0.000000 -0.258819 0.965926
      length 5.031290
      axis 15.0 0.0 0.0 xyz
      dof rx ry rz
   end
   begin
      id 30
      name RightToeBase
      direction 0.000000 0.000000 1.000000
      length 2.952750
      axis 0.0 0.0 0.0 xyz
      dof rx ry rz
   end
:hierarchy
   begin
      root Spine_dum LeftUpLeg_dum RightUpLeg_dum
      Spine_dum Spine
      LeftUpLeg_dum LeftUpLeg
      RightUpLeg_dum RightUpLeg
      Spine Spine_dum1 Spine_dum2 Spine_dum3
      Spine_dum1 Head
      Spine_dum2 LeftShoulder
      Spine_dum3 RightShoulder
      LeftShoulder LeftArm
      LeftArm LeftForeArm
      LeftForeArm LeftHand
      LeftHand LeftHand_dum1 LeftHand_dum2
      LeftHand_dum1 LeftHandThumb1
      RightShoulder RightArm
      RightArm RightForeArm
      RightForeArm RightHand
      RightHand RightHand_dum1 RightHand_dum2
      RightHand_dum1 RightHandThumb1
      LeftUpLeg LeftLeg
      LeftLeg LeftFoot
      LeftFoot LeftToeBase
      RightUpLeg RightLeg
      RightLeg RightFoot
      RightFoot RightToeBase
   end

# File created by Blade
# Date/Time:  Wed Apr 08 14:55:03 2015
# Frame Rate: 120.000 fps
#------------------------------------------------------
:FULLY-SPECIFIED
:DEGREES
428
root 4.983929 33.186681 3.271236 18.190368 24.877332 0.937961
Spine -8.441524 -2.181131 1.774570
Head -12.051069 -21.985686 12.746295
LeftShoulder -20.795541 47.101425 7.360030
LeftArm 52.947901 14.140152 -69.025836
LeftForeArm 1.942138 -0.000000 123.856345
LeftHand 8.443592 0.000000 4.089305
LeftHandThumb1 -26.253704 0.000000 33.147579
RightShoulder -5.637539 -8.488025 -16.738660
RightArm 17.196625 -34.858003 79.220290
RightForeArm -0.746275 -0.000000 109.642358
RightHand 14.819967 -0.000000 -13.938019
RightHandThumb1 -24.326973 -0.000000 -32.862282
LeftUpLeg -30.564990 -18.443865 2.035225
LeftLeg 20.544605 -0.000000 -0.000000
LeftFoot -2.928835 12.944991 -11.047697
LeftToeBase -14.778123 -0.000000 0.000000
RightUpLeg -16.309381 -6.566050 -2.220093
RightLeg 16.225300 -0.000000 -0.000000
RightFoot -8.298879 -20.249882 9.660864
RightToeBase -12.264675 -0.000000 0.000000
429
root 4.976350 33.188841 3.195686 18.217316 24.625383 0.981081
Spine -8.461975 -2.468480 1.846307
Head -11.534478 -21.701658 12.441550
LeftShoulder -20.478080 46.867466 7.621648
LeftArm 53.214284 14.406245 -68.871012
LeftForeArm 2.101014 -0.000000 123.695883
LeftHand 8.470418 -0.000000 4.101205
LeftHandThumb1 -26.253704 0.000000 33.147579
RightShoulder -5.621308 -8.700467 -16.880997
RightArm 17.068552 -35.292747 79.185652
RightForeArm -0.727872 0.000000 109.372290
RightHand 14.772633 0.000000 -14.174299
RightHandThumb1 -24.326973 -0.000000 -32.862282
LeftUpLeg -30.690420 -19.110309 2.464559
LeftLeg 20.674099 -0.000000 -0.000000
LeftFoot -3.612766 12.849218 -10.955808
LeftToeBase -14.035109 -0.000000 0.000000
RightUpLeg -16.295367 -6.387041 -2.368230
RightLeg 15.863711 -0.000000 -0.000000
RightFoot -8.168524 -20.256681 9.639122
RightToeBase -12.200485 -0.000000 0.000000
430
root 4.975706 33.189141 3.123036 18.231298 24.307155 0.973553
Spine -8.512975 -2.673316 1.935515
Head -10.973018 -21.429113 12.138154
LeftShoulder -20.143835 46.614782 7.917843
LeftArm 53.483271 14.716717 -68.764888
LeftForeArm 2.359113 0.000000 123.542034
LeftHand 8.423423 -0.000000 3.973061
LeftHandThumb1 -26.253704 0.000000 33.147579
RightShoulder -5.612190 -8.884616 -17.051166
RightArm 16.842836 -35.654865 79.206900
RightForeArm -0.449447 -0.000000 109.091565
RightHand 14.811690 -0.000000 -14.122073
RightHandThumb1 -24.326973 -0.000000 -32.862282
LeftUpLeg -30.776854 -19.820841 2.932916
LeftLeg 20.814499 -0.000000 -0.000000
LeftFoot -4.479424 13.025768 -10.897502
LeftToeBase -13.263246 -0.000000 0.000000
RightUpLeg -16.320042 -6.288256 -2.476031
RightLeg 15.553547 -0.000000 -0.000000
RightFoot -8.054660 -20.106000 9.622740
RightToeBase -12.123440 -0.000000 0.000000
431
root 4.979245 33.188180 3.051565 18.238824 23.909005 0.925897
Spine -8.604397 -2.840650 2.030459
Head -10.365223 -21.117246 11.846419
LeftShoulder -19.802222 46.377479 8.230523
LeftArm 53.692812 15.063288 -68.701133
LeftForeArm 2.440812 -0.000000 123.439095
LeftHand 8.303237 0.000000 3.980818
LeftHandThumb1 -26.253704 0.000000 33.147579
RightShoulder -5.547227 -9.136769 -17.175892
RightArm 16.638222 -35.906174 79.145050
RightForeArm -0.078051 -0.000000 108.957034
RightHand 14.675071 -0.000000 -13.971000
RightHandThumb1 -24.326973 -0.000000 -32.862282
LeftUpLeg -30.829479 -20.353826 3.351644
LeftLeg 21.050881 -0.000000 -0.000000
LeftFoot -5.482484 13.375539 -10.986901
LeftToeBase -12.602347 -0.000000 0.000000
RightUpLeg -16.387543 -6.208164 -2.549657
RightLeg 15.276496 -0.000000 -0.000000
RightFoot -7.926841 -19.903841 9.566562
RightToeBase -11.917208 -0.000000 0.000000
432
root 4.983094 33.185320 2.976800 18.241674 23.462579 0.812829
Spine -8.706122 -2.955804 2.165161
Head -9.793493 -20.759867 11.583390
LeftShoulder -19.499174 46.174297 8.508728
LeftArm 53.973597 15.368484 -68.678067
LeftForeArm 2.643587 -0.000000 123.306013
LeftHand 8.295798 -0.000000 3.847872
LeftHandThumb1 -26.253704 0.000000 33.147579
RightShoulder -5.473439 -9.331047 -17.321628
RightArm 16.388053 -36.176482 79.067305
RightForeArm 0.292367 -0.000000 108.869142
RightHand 14.591184 0.000000 -14.166946
RightHandThumb1 -24.326973 -0.000000 -32.862282
LeftUpLeg -30.940043 -20.773229 3.772773
LeftLeg 21.569011 -0.000000 -0.000000
LeftFoot -6.831722 13.740664 -11.636538
LeftToeBase -11.818290 -0.000000 0.000000
RightUpLeg -16.523574 -6.119810 -2.564788
RightLeg 15.061683 -0.000000 -0.000000
RightFoot -7.734880 -19.700574 9.442733
RightToeBase -12.025102 -0.000000 0.000000
